<svg xmlns="http://www.w3.org/2000/svg" viewBox="0 0 820 220" role="img" aria-labelledby="title desc">
  <title id="title">Simplified eukaryotic transcription diagram</title>
  <desc id="desc">Promoter, enhancer, mediator, polymerase II, and general transcription factor flow.</desc>
  <rect width="820" height="220" fill="#0b1011"/>
  <rect x="40" y="128" width="740" height="10" rx="5" fill="#7da089"/>
  <rect x="150" y="108" width="120" height="24" rx="12" fill="#d7b45b"/>
  <text x="210" y="124" text-anchor="middle" font-family="Space Grotesk, Arial, sans-serif" font-size="13" fill="#0b1011">CORE PROMOTER</text>
  <rect x="520" y="72" width="120" height="24" rx="12" fill="#64c4d8"/>
  <text x="580" y="88" text-anchor="middle" font-family="Space Grotesk, Arial, sans-serif" font-size="13" fill="#071114">ENHANCER</text>
  <rect x="304" y="82" width="112" height="36" rx="18" fill="#cf7f62"/>
  <text x="360" y="104" text-anchor="middle" font-family="Space Grotesk, Arial, sans-serif" font-size="14" fill="#130705">MEDIATOR</text>
  <rect x="300" y="138" width="140" height="40" rx="20" fill="#f0d68e"/>
  <text x="370" y="162" text-anchor="middle" font-family="Space Grotesk, Arial, sans-serif" font-size="14" fill="#151007">RNA POL II</text>
  <rect x="120" y="64" width="80" height="28" rx="14" fill="#8fe0a2"/>
  <text x="160" y="82" text-anchor="middle" font-family="Space Grotesk, Arial, sans-serif" font-size="12" fill="#07150b">TFIID</text>
  <rect x="214" y="64" width="80" height="28" rx="14" fill="#8fe0a2"/>
  <text x="254" y="82" text-anchor="middle" font-family="Space Grotesk, Arial, sans-serif" font-size="12" fill="#07150b">TFIIB</text>
  <rect x="446" y="144" width="80" height="28" rx="14" fill="#8fe0a2"/>
  <text x="486" y="162" text-anchor="middle" font-family="Space Grotesk, Arial, sans-serif" font-size="12" fill="#07150b">TFIIE</text>
  <rect x="540" y="144" width="80" height="28" rx="14" fill="#8fe0a2"/>
  <text x="580" y="162" text-anchor="middle" font-family="Space Grotesk, Arial, sans-serif" font-size="12" fill="#07150b">TFIIH</text>
  <path d="M520 96 C500 110, 456 116, 416 104" fill="none" stroke="#64c4d8" stroke-width="3"/>
  <path d="M360 118 L370 138" fill="none" stroke="#cf7f62" stroke-width="3"/>
  <path d="M160 92 L170 108" fill="none" stroke="#8fe0a2" stroke-width="3"/>
  <path d="M254 92 L242 108" fill="none" stroke="#8fe0a2" stroke-width="3"/>
  <path d="M486 144 L456 138" fill="none" stroke="#8fe0a2" stroke-width="3"/>
  <path d="M580 144 L544 138" fill="none" stroke="#8fe0a2" stroke-width="3"/>
  <text x="42" y="34" font-family="Space Grotesk, Arial, sans-serif" font-size="16" fill="#f1e5b6">Lecture map: promoter logic, enhancer action, mediator bridge, Pol II initiation.</text>
</svg>
